<svg width="31" height="31" viewBox="0 0 31 31" fill="none" xmlns="http://www.w3.org/2000/svg">
<path d="M23.777 5.363C23.4091 5.363 23.0495 5.47209 22.7436 5.67647C22.4378 5.88085 22.1994 6.17134 22.0586 6.51121C21.9178 6.85108 21.881 7.22506 21.9527 7.58587C22.0245 7.94667 22.2017 8.27809 22.4618 8.53822C22.7219 8.79834 23.0533 8.97549 23.4141 9.04726C23.7749 9.11903 24.1489 9.08219 24.4888 8.94142C24.8287 8.80064 25.1192 8.56224 25.3235 8.25636C25.5279 7.95049 25.637 7.59087 25.637 7.223C25.637 6.7297 25.441 6.2566 25.0922 5.90778C24.7434 5.55896 24.2703 5.363 23.777 5.363ZM30.907 9.114C30.8769 7.82796 30.636 6.55557 30.194 5.3475C29.7999 4.31386 29.1865 3.37788 28.396 2.604C27.6285 1.80951 26.6903 1.19997 25.6525 0.8215C24.4476 0.366049 23.1738 0.119675 21.886 0.0929999C20.243 -8.6613e-08 19.716 0 15.5 0C11.284 0 10.757 -8.6613e-08 9.114 0.0929999C7.82619 0.119675 6.55238 0.366049 5.3475 0.8215C4.3116 1.20381 3.37425 1.81282 2.604 2.604C1.80951 3.37153 1.19997 4.30968 0.8215 5.3475C0.366049 6.55238 0.119675 7.82619 0.0929999 9.114C-8.6613e-08 10.757 0 11.284 0 15.5C0 19.716 -8.6613e-08 20.243 0.0929999 21.886C0.119675 23.1738 0.366049 24.4476 0.8215 25.6525C1.19997 26.6903 1.80951 27.6285 2.604 28.396C3.37425 29.1872 4.3116 29.7962 5.3475 30.1785C6.55238 30.6339 7.82619 30.8803 9.114 30.907C10.757 31 11.284 31 15.5 31C19.716 31 20.243 31 21.886 30.907C23.1738 30.8803 24.4476 30.6339 25.6525 30.1785C26.6903 29.8 27.6285 29.1905 28.396 28.396C29.19 27.625 29.8039 26.6882 30.194 25.6525C30.636 24.4444 30.8769 23.172 30.907 21.886C30.907 20.243 31 19.716 31 15.5C31 11.284 31 10.757 30.907 9.114ZM28.117 21.7C28.1057 22.6839 27.9275 23.6587 27.59 24.583C27.3425 25.2576 26.945 25.8671 26.4275 26.3655C25.9248 26.8778 25.3165 27.2745 24.645 27.528C23.7207 27.8655 22.7459 28.0437 21.762 28.055C20.212 28.1325 19.6385 28.148 15.562 28.148C11.4855 28.148 10.912 28.148 9.362 28.055C8.34038 28.0741 7.32312 27.9168 6.355 27.59C5.71296 27.3235 5.1326 26.9278 4.65 26.4275C4.13554 25.9296 3.74301 25.3195 3.503 24.645C3.12458 23.7075 2.91469 22.7105 2.883 21.7C2.883 20.15 2.79 19.5765 2.79 15.5C2.79 11.4235 2.79 10.85 2.883 9.3C2.88995 8.29414 3.07357 7.29731 3.4255 6.355C3.69837 5.70076 4.11721 5.11757 4.65 4.65C5.12091 4.11706 5.7029 3.6938 6.355 3.41C7.2998 3.06907 8.2956 2.89087 9.3 2.883C10.85 2.883 11.4235 2.79 15.5 2.79C19.5765 2.79 20.15 2.79 21.7 2.883C22.6839 2.89428 23.6587 3.07248 24.583 3.41C25.2874 3.67141 25.9196 4.09641 26.4275 4.65C26.9354 5.12613 27.3323 5.70824 27.59 6.355C27.9345 7.29885 28.1128 8.29526 28.117 9.3C28.1945 10.85 28.21 11.4235 28.21 15.5C28.21 19.5765 28.1945 20.15 28.117 21.7ZM15.5 7.5485C13.928 7.55156 12.3922 8.02051 11.0866 8.8961C9.78104 9.77168 8.76429 11.0146 8.16483 12.4678C7.56538 13.921 7.41012 15.5193 7.71868 17.0607C8.02724 18.6022 8.78577 20.0175 9.89842 21.128C11.0111 22.2385 12.4279 22.9943 13.9699 23.2998C15.5119 23.6054 17.1099 23.447 18.562 22.8447C20.014 22.2424 21.255 21.2233 22.128 19.916C23.001 18.6087 23.467 17.072 23.467 15.5C23.469 14.4539 23.2643 13.4177 22.8644 12.4511C22.4646 11.4844 21.8776 10.6064 21.1371 9.86738C20.3967 9.1284 19.5175 8.5431 18.5501 8.14514C17.5827 7.74718 16.5461 7.54441 15.5 7.5485ZM15.5 20.6615C14.4792 20.6615 13.4812 20.3588 12.6324 19.7916C11.7836 19.2245 11.1221 18.4184 10.7314 17.4752C10.3407 16.5321 10.2385 15.4943 10.4377 14.493C10.6368 13.4918 11.1284 12.5721 11.8503 11.8503C12.5721 11.1284 13.4918 10.6368 14.493 10.4377C15.4943 10.2385 16.5321 10.3407 17.4752 10.7314C18.4184 11.1221 19.2245 11.7836 19.7916 12.6324C20.3588 13.4812 20.6615 14.4792 20.6615 15.5C20.6615 16.1778 20.528 16.849 20.2686 17.4752C20.0092 18.1014 19.629 18.6704 19.1497 19.1497C18.6704 19.629 18.1014 20.0092 17.4752 20.2686C16.849 20.528 16.1778 20.6615 15.5 20.6615Z" fill="black"/>
</svg>
